<svg id="레이어_1" data-name="레이어 1" xmlns="http://www.w3.org/2000/svg" xmlns:xlink="http://www.w3.org/1999/xlink" viewBox="0 0 533.3 660.94"><defs><style>.cls-1{fill:url(#새_그라디언트_견본_1);}.cls-2{fill:url(#새_그라디언트_견본_1-2);}.cls-3{fill:url(#새_그라디언트_견본_1-3);}.cls-4{fill:url(#새_그라디언트_견본_1-4);}</style><linearGradient id="새_그라디언트_견본_1" x1="282.34" y1="330.15" x2="462.76" y2="80.7" gradientUnits="userSpaceOnUse"><stop offset="0.18" stop-color="#ffb000"/><stop offset="1" stop-color="#f5cb4d"/></linearGradient><linearGradient id="새_그라디언트_견본_1-2" x1="285.69" y1="652.1" x2="493.34" y2="365" xlink:href="#새_그라디언트_견본_1"/><linearGradient id="새_그라디언트_견본_1-3" x1="143.45" y1="240.18" x2="194.8" y2="240.18" xlink:href="#새_그라디언트_견본_1"/><linearGradient id="새_그라디언트_견본_1-4" x1="24.29" y1="404.81" x2="378.59" y2="404.81" xlink:href="#새_그라디언트_견본_1"/></defs><path class="cls-1" d="M498.53,120.4H378.59V77.24a59.05,59.05,0,0,0-59-59H134a51.34,51.34,0,0,0,0,102.68H247.65a12.84,12.84,0,0,1,12.84,12.83v99a177.24,177.24,0,0,1,118.1,167.08V223.1h48.06a12.83,12.83,0,0,1,12.83,12.84v99A177.23,177.23,0,0,1,557.59,502V179.46A59.06,59.06,0,0,0,498.53,120.4Z" transform="translate(-24.29 -18.19)"/><path class="cls-2" d="M557.59,502a177.16,177.16,0,0,1-354.31,0,59,59,0,0,1,118.1,0,59.05,59.05,0,0,0,118.1,0V334.91A177.23,177.23,0,0,1,557.59,502Z" transform="translate(-24.29 -18.19)"/><circle class="cls-3" cx="169.13" cy="240.18" r="25.67"/><path class="cls-4" d="M260.49,232.69v58.1H297a20.4,20.4,0,0,1,0,40.8H211.61a20.4,20.4,0,0,0,0,40.8h48.88v27.38a59.05,59.05,0,0,1-118.1,0,59,59,0,0,0-118.1,0,177.15,177.15,0,1,0,236.2-167.08Z" transform="translate(-24.29 -18.19)"/></svg>